<?xml version="1.0" encoding="utf-8"?>
<!-- Generator: Adobe Illustrator 24.2.1, SVG Export Plug-In . SVG Version: 6.00 Build 0)  -->
<svg version="1.1" id="Solid" xmlns="http://www.w3.org/2000/svg" xmlns:xlink="http://www.w3.org/1999/xlink" x="0px" y="0px"
	 viewBox="0 0 512 299" style="enable-background:new 0 0 512 299;" xml:space="preserve">
<path d="M80,173h352v16H80V173z M46.2,189H64v-24c0-4.4,3.6-8,8-8h368c4.4,0,8,3.6,8,8v24h17.8l12-48H34.2L46.2,189z M208,61h96V45
	h-96V61z M480,125H32V37c0-13.2,10.8-24,24-24h400c13.2,0,24,10.8,24,24V125z M320,37c0-4.4-3.6-8-8-8H200c-4.4,0-8,3.6-8,8v32
	c0,4.4,3.6,8,8,8h112c4.4,0,8-3.6,8-8V37z M117.6,277c0,4.4,3.6,8,8,8c4.4,0,8-3.6,8-8c0-1.8,0.3-2.3,1.3-3.9
	c4.7-7.4,4.7-16.8,0-24.2c-1.7-2.3-1.7-5.5,0-7.8c2.4-3.6,3.6-7.8,3.5-12.1c0-4.4-3.6-8-8-8c-4.4,0-8,3.6-8,8c0,1.8-0.3,2.3-1.3,3.9
	c-4.7,7.4-4.7,16.8,0,24.2c1.7,2.3,1.7,5.5,0,7.8C118.8,268.5,117.5,272.7,117.6,277z M245.6,277c0,4.4,3.6,8,8,8s8-3.6,8-8
	c0-1.8,0.3-2.3,1.3-3.9c4.7-7.4,4.7-16.8,0-24.2c-1.7-2.3-1.7-5.5,0-7.8c2.4-3.6,3.6-7.8,3.5-12.1c0-4.4-3.6-8-8-8s-8,3.6-8,8
	c0,1.8-0.3,2.3-1.3,3.9c-4.7,7.4-4.7,16.8,0,24.2c1.7,2.3,1.7,5.5,0,7.8C246.8,268.5,245.5,272.7,245.6,277z M181.6,277
	c0,4.4,3.6,8,8,8s8-3.6,8-8c0-1.8,0.3-2.3,1.3-3.9c4.7-7.4,4.7-16.8,0-24.2c-1.7-2.3-1.7-5.5,0-7.8c2.4-3.6,3.6-7.8,3.5-12.1
	c0-4.4-3.6-8-8-8s-8,3.6-8,8c0,1.8-0.3,2.3-1.3,3.9c-4.7,7.4-4.7,16.8,0,24.2c1.7,2.3,1.7,5.5,0,7.8
	C182.8,268.5,181.5,272.7,181.6,277z M309.6,277c0,4.4,3.6,8,8,8s8-3.6,8-8c0-1.8,0.3-2.3,1.3-3.9c4.7-7.4,4.7-16.8,0-24.2
	c-1.7-2.3-1.7-5.5,0-7.8c2.4-3.6,3.6-7.8,3.5-12.1c0-4.4-3.6-8-8-8s-8,3.6-8,8c0,1.8-0.3,2.3-1.3,3.9c-4.7,7.4-4.7,16.8,0,24.2
	c1.7,2.3,1.7,5.5,0,7.8C310.8,268.5,309.5,272.7,309.6,277z M373.6,277c0,4.4,3.6,8,8,8s8-3.6,8-8c0-1.8,0.3-2.3,1.3-3.9
	c4.7-7.4,4.7-16.8,0-24.2c-1.7-2.3-1.7-5.5,0-7.8c2.4-3.6,3.6-7.8,3.5-12.1c0-4.4-3.6-8-8-8s-8,3.6-8,8c0,1.8-0.3,2.3-1.3,3.9
	c-4.7,7.4-4.7,16.8,0,24.2c1.7,2.3,1.7,5.5,0,7.8C374.8,268.5,373.5,272.7,373.6,277z"/>
</svg>
