<?xml version="1.0" encoding="iso-8859-1"?>
<!-- Generator: Adobe Illustrator 19.0.0, SVG Export Plug-In . SVG Version: 6.00 Build 0)  -->
<svg version="1.1" id="Capa_1" xmlns="http://www.w3.org/2000/svg" xmlns:xlink="http://www.w3.org/1999/xlink" x="0px" y="0px"
	 viewBox="0 0 490 490" style="enable-background:new 0 0 490 490;" xml:space="preserve">
<g>
	<path d="M127.659,83.501c-25.331,0-45.938,20.606-45.938,45.938v277.076c0,25.331,20.606,45.938,45.938,45.938h5.772V490h61.25
		v-37.548h100.638V490h61.25v-37.548h5.772c25.331,0,45.938-20.606,45.938-45.938V129.439c0-25.332-20.606-45.938-45.938-45.938
		h-52.367V30.625h24.344V0H155.682v30.625h32.076v52.876H127.659z M362.341,421.826H127.659c-8.449,0-15.313-6.864-15.313-15.312
		V188.879h265.307v217.635C377.654,414.963,370.79,421.826,362.341,421.826z M377.654,129.439v28.816H112.346v-28.816
		c0-8.449,6.864-15.313,15.313-15.313h234.682C370.79,114.126,377.654,120.99,377.654,129.439z M218.383,30.625h60.966v52.876
		h-60.966V30.625z"/>
</g>
<g>
</g>
<g>
</g>
<g>
</g>
<g>
</g>
<g>
</g>
<g>
</g>
<g>
</g>
<g>
</g>
<g>
</g>
<g>
</g>
<g>
</g>
<g>
</g>
<g>
</g>
<g>
</g>
<g>
</g>
</svg>
