<?xml version="1.0" encoding="UTF-8"?>
<svg width="24px" height="24px" viewBox="0 0 24 24" version="1.1" xmlns="http://www.w3.org/2000/svg" xmlns:xlink="http://www.w3.org/1999/xlink">
    <!-- Generator: Sketch 51.3 (57544) - http://www.bohemiancoding.com/sketch -->
    <title>cab-service</title>
    <desc>Created with Sketch.</desc>
    <defs></defs>
    <g id="cab-service" stroke="none" stroke-width="1" fill="none" fill-rule="evenodd">
        <path d="M15,2 L16,4 L8,4 L9,2 L15,2 Z M22,12.9 L22,20.4 C22,21.2 21.3,21.9 20.5,21.9 C19.7,21.9 19,21.2 19,20.4 L19,18.9 L5,18.9 L5,20.4 C5,21.2 4.3,21.9 3.5,21.9 C2.7,21.9 2,21.2 2,20.4 L2,12.9 L5,5.9 L19,5.9 L22,12.9 Z M6.3,8 L5.1,11 L19,11 L17.7,8 L6.3,8 Z M5.5,16 C6.3,16 7,15.3 7,14.5 C7,13.7 6.3,13 5.5,13 C4.7,13 4,13.7 4,14.5 C4,15.3 4.7,16 5.5,16 Z M18.5,16 C19.3,16 20,15.3 20,14.5 C20,13.7 19.3,13 18.5,13 C17.7,13 17,13.7 17,14.5 C17,15.3 17.7,16 18.5,16 Z" id="Combined-Shape" fill="#4A4A4A" fill-rule="nonzero"></path>
    </g>
</svg>