<?xml version="1.0" encoding="utf-8"?>
<!-- Generator: Adobe Illustrator 24.2.1, SVG Export Plug-In . SVG Version: 6.00 Build 0)  -->
<svg version="1.1" id="Capa_1" xmlns="http://www.w3.org/2000/svg" xmlns:xlink="http://www.w3.org/1999/xlink" x="0px" y="0px"
	 viewBox="0 0 512 524" style="enable-background:new 0 0 512 524;" xml:space="preserve">
<g>
	<path d="M311,318h184v58H311V318z"/>
	<path d="M311,495h154v9c0,8.3,6.7,15,15,15s15-6.7,15-15v-98H311V495z"/>
	<path d="M311,230h184v58H311V230z"/>
	<path d="M496,7H16C7.7,7,1,13.7,1,22s6.7,15,15,15h480c8.3,0,15-6.7,15-15S504.3,7,496,7z"/>
	<path d="M159,495h122V67H159V495z M201,248c8.3,0,15,6.7,15,15c0,8.3-6.7,15-15,15s-15-6.7-15-15C186.1,254.7,192.8,248,201,248z"
		/>
	<path d="M311,67h184v133H311V67z"/>
	<path d="M17,504c0,8.3,6.7,15,15,15s15-6.7,15-15v-9h82V67H17V504z M88,248c8.3,0,15,6.7,15,15c0,8.3-6.7,15-15,15s-15-6.7-15-15
		S79.7,248,88,248z"/>
</g>
</svg>
