<svg id="Layer_1" enable-background="new 0 0 514 514" height="512" viewBox="0 0 514 514" width="512" xmlns="http://www.w3.org/2000/svg"><g><path d="m102 513h110c2.761 0 5-2.239 5-5v-358c0-2.761-2.239-5-5-5h-110c-2.761 0-5 2.239-5 5v358c0 2.761 2.239 5 5 5z"/><path d="m254 513h110c2.761 0 5-2.239 5-5v-358c0-2.761-2.239-5-5-5h-110c-2.761 0-5 2.239-5 5v358c0 2.761 2.239 5 5 5z"/><path d="m498 1h-482c-8.837 0-16 7.163-16 16v480c0 8.837 7.163 16 16 16h44c2.761 0 5-2.239 5-5v-379c0-8.837 7.163-16 16-16h304c8.837 0 16 7.163 16 16v379c0 2.761 2.239 5 5 5h92c8.837 0 16-7.163 16-16v-480c0-8.837-7.163-16-16-16zm-322 88c-8.84 0-16-7.16-16-16s7.16-16 16-16 16 7.16 16 16-7.16 16-16 16zm56 0c-8.84 0-16-7.16-16-16s7.16-16 16-16 16 7.16 16 16-7.16 16-16 16zm56 0c-8.84 0-16-7.16-16-16s7.16-16 16-16 16 7.16 16 16-7.16 16-16 16zm169 271c0 8.84-7.16 16-16 16s-16-7.16-16-16v-15c0-8.84 7.16-16 16-16s16 7.16 16 16zm0-63c0 8.84-7.16 16-16 16s-16-7.16-16-16v-16c0-8.84 7.16-16 16-16s16 7.16 16 16z"/></g></svg>