<?xml version="1.0" encoding="iso-8859-1"?>
<!-- Generator: Adobe Illustrator 19.0.0, SVG Export Plug-In . SVG Version: 6.00 Build 0)  -->
<svg version="1.1" id="Capa_1" xmlns="http://www.w3.org/2000/svg" xmlns:xlink="http://www.w3.org/1999/xlink" x="0px" y="0px"
	 viewBox="0 0 512 512" style="enable-background:new 0 0 512 512;" xml:space="preserve">
<g>
	<g>
		<path d="M259.896,109.837c-1.309-1.605-2.628-3.083-3.896-4.417c-1.268,1.334-2.587,2.812-3.896,4.417
			c-5.077,6.223-11.128,15.795-11.128,26.06c0,8.284,6.74,15.023,15.024,15.023c8.284,0,15.024-6.739,15.024-15.023
			C271.024,125.632,264.973,116.06,259.896,109.837z"/>
	</g>
</g>
<g>
	<g>
		<path d="M80.68,0v336.935H431.32V0H80.68z M247.223,73.124l8.777-6.335l8.777,6.335c1.48,1.066,36.248,26.573,36.248,62.772
			c0,24.827-20.198,45.024-45.025,45.024s-45.025-20.197-45.025-45.024C210.975,99.697,245.743,74.191,247.223,73.124z
			 M309.406,306.885L309.406,306.885H202.594v-30.001h106.812V306.885z"/>
	</g>
</g>
<g>
	<g>
		<polygon points="80.68,366.936 80.68,431.028 158.873,471.955 187.594,471.955 187.594,512 217.595,512 217.595,471.955 
			294.404,471.955 294.404,512 324.405,512 324.405,471.955 353.127,471.955 431.32,431.028 431.32,366.936 		"/>
	</g>
</g>
<g>
</g>
<g>
</g>
<g>
</g>
<g>
</g>
<g>
</g>
<g>
</g>
<g>
</g>
<g>
</g>
<g>
</g>
<g>
</g>
<g>
</g>
<g>
</g>
<g>
</g>
<g>
</g>
<g>
</g>
</svg>
