<svg viewBox="-52 0 512 512" xmlns="http://www.w3.org/2000/svg"><path d="m245.371094 322.679688v-30h38.582031c-7.058594-37.515626-40.046875-65.992188-79.582031-65.992188-44.660156 0-80.992188 36.332031-80.992188 80.992188 0 44.664062 36.335938 80.996093 80.992188 80.996093 39.535156 0 72.523437-28.480469 79.582031-65.996093zm0 0"/><path d="m408.746094 109.050781v-109.050781h-408.746094v109.050781zm-67.605469-69.902343h29.75v29.75h-29.75zm-56.769531 0h29.75v29.75h-29.75zm0 0"/><path d="m0 139.050781v372.949219h408.746094v-372.949219zm204.371094 279.625c-61.199219 0-110.992188-49.792969-110.992188-110.996093 0-61.203126 49.792969-110.992188 110.992188-110.992188 61.203125 0 110.996094 49.789062 110.996094 110.992188 0 61.203124-49.792969 110.996093-110.996094 110.996093zm0 0"/></svg>