<?xml version="1.0" encoding="UTF-8"?>
<svg width="24px" height="24px" viewBox="0 0 24 24" version="1.1" xmlns="http://www.w3.org/2000/svg" xmlns:xlink="http://www.w3.org/1999/xlink">
    <!-- Generator: Sketch 51 (57462) - http://www.bohemiancoding.com/sketch -->
    <title>in-house-restaurant</title>
    <desc>Created with Sketch.</desc>
    <defs></defs>
    <g id="in-house-restaurant" stroke="none" stroke-width="1" fill="none" fill-rule="evenodd">
        <path d="M19.7701,15.0098333 L4.2301,15.0098333 C4.0601,14.3698333 3.9701,13.6898333 3.9701,12.9998333 L20.0301,12.9998333 C20.0301,13.6898333 19.9401,14.3698333 19.7701,15.0098333 Z M16,20.0001333 L22,20.0001333 L22,22.0001333 L16,22.0001333 L16,22.0291333 L8,22.0291333 L8,22.0001333 L2,22.0001333 L2,20.0001333 L8,20.0001333 L8,19.9501333 C6.8,19.2601333 5.79,18.2601333 5.09,17.0691333 C4.89,16.7291333 4.71,16.3801333 4.57,16.0101333 L19.44,16.0101333 C18.77,17.6801333 17.55,19.0601333 16,19.9501333 L16,20.0001333 Z M9.3101,5.89753331 C8.7601,5.36453331 8.0061,4.63253331 8.0061,3.23953331 C8.0061,3.12053331 8.0091,2.99953331 8.0231,2.87853331 C8.0911,2.33053331 8.5911,1.94453331 9.1371,2.00653331 C9.6851,2.07453331 10.0761,2.57253331 10.0091,3.12153331 C10.0041,3.16053331 10.0061,3.20053331 10.0061,3.23953331 C10.0061,3.76453331 10.2201,3.99453331 10.7031,4.46153331 C11.2531,4.99653331 12.0061,5.72653331 12.0061,7.12053331 C12.0061,8.50653331 11.2561,9.23653331 10.7081,9.76953331 C10.4601,10.0105333 10.2461,10.2195333 10.1291,10.4505333 C9.9531,10.7985333 9.6011,11.0005333 9.2351,11.0005333 C9.0841,11.0005333 8.9301,10.9655333 8.7861,10.8925333 C8.2921,10.6435333 8.0951,10.0425333 8.3441,9.54853331 C8.6111,9.01953331 8.9851,8.65653331 9.3141,8.33553331 C9.7941,7.86853331 10.0061,7.64053331 10.0061,7.12053331 C10.0061,6.59453331 9.7931,6.36653331 9.3101,5.89753331 Z M13.1954,10.8926333 C12.7024,10.6436333 12.5044,10.0416333 12.7534,9.54863331 C13.0214,9.01963331 13.3944,8.65663331 13.7244,8.33463331 C14.2034,7.86863331 14.4164,7.64063331 14.4164,7.12063331 C14.4164,6.58963331 14.1984,6.35863331 13.7064,5.88763331 L13.5254,5.71263331 C13.1314,5.32663331 13.1254,4.69363331 13.5124,4.29863331 C13.8994,3.90463331 14.5324,3.89863331 14.9264,4.28663331 L15.0894,4.44263331 C15.6494,4.97863331 16.4164,5.71263331 16.4164,7.12063331 C16.4164,8.50663331 15.6664,9.23663331 15.1184,9.76963331 C14.8694,10.0106333 14.6554,10.2196333 14.5384,10.4506333 C14.3624,10.7986333 14.0104,10.9996333 13.6454,10.9996333 C13.4934,10.9996333 13.3404,10.9656333 13.1954,10.8926333 Z" id="Combined-Shape" fill="#4A4A4A"></path>
    </g>
</svg>