<?xml version="1.0" encoding="UTF-8"?>
<svg width="24px" height="24px" viewBox="0 0 24 24" version="1.1" xmlns="http://www.w3.org/2000/svg" xmlns:xlink="http://www.w3.org/1999/xlink">
    <!-- Generator: Sketch 51.3 (57544) - http://www.bohemiancoding.com/sketch -->
    <title>king-bed</title>
    <desc>Created with Sketch.</desc>
    <defs></defs>
    <g id="king-bed" stroke="none" stroke-width="1" fill="none" fill-rule="evenodd">
        <path d="M20,13 C21.1,13 22,13.9 22,15 L22,21 C22,21.6 21.6,22 21,22 C20.4,22 20,21.6 20,21 L20,19 L4,19 L4,21 C4,21.6 3.6,22 3,22 C2.4,22 2,21.6 2,21 L2,15 C2,13.9 2.9,13 4,13 L20,13 Z M5,6 L5,11 L3,11 L3,3 C3,2.4 3.5,2 4,2 C4.6,2 5,2.5 5,3 L5,4 L19,4 L19,3 C19,2.4 19.5,2 20,2 C20.6,2 21,2.4 21,3 L21,11 L19,11 L19,6 L5,6 Z M7,8 L11,8 L11,11 L7,11 L7,8 Z M13,8 L17,8 L17,11 L13,11 L13,8 Z" id="Combined-Shape" fill="#4A4A4A" fill-rule="nonzero"></path>
    </g>
</svg>