<?xml version="1.0" encoding="utf-8"?>
<!-- Generator: Adobe Illustrator 24.2.1, SVG Export Plug-In . SVG Version: 6.00 Build 0)  -->
<svg version="1.1" id="Capa_1" xmlns="http://www.w3.org/2000/svg" xmlns:xlink="http://www.w3.org/1999/xlink" x="0px" y="0px"
	 viewBox="0 0 393 380.7" style="enable-background:new 0 0 393 380.7;" xml:space="preserve">
<g>
	<g>
		<path d="M135.2,195.2c0.2-4.1,0.5-8.1,1-12.3c1-9.8,3.1-19.6,5.3-29.1c1.3-4.8,2.7-9.5,4.2-14.1c1.9-4.5,3.8-8.9,5.7-13.3
			c4.2-8.5,9-16.5,14.6-23.1c1.3-1.7,2.7-3.4,4-5c1.5-1.5,3-2.9,4.4-4.4c3-2.7,5.7-5.7,8.7-7.9c6-4.5,11.4-8.7,16.8-11.3
			c5.2-2.9,9.7-5.4,13.8-6.9c7.9-3.2,12.4-4.8,12.4-4.8s-3.8,3-10.5,8c-3.5,2.3-7.1,5.8-11.5,9.5c-4.6,3.5-8.7,8.5-13.6,13.3
			c-2.5,2.4-4.4,5.5-6.7,8.3c-1.1,1.4-2.3,2.9-3.5,4.4c-1,1.6-2,3.3-3,4.9c-4.3,6.4-7.6,13.9-10.9,21.6c-1.4,4-2.8,8.1-4.2,12.1
			c-1,4.3-2.1,8.6-3.2,12.9c-1.8,8.8-3.5,17.8-4.3,27c-0.5,3.4-0.8,6.7-1.1,10.1c73.4,0,130.3,0.1,209.8,0.1c0.3-3.5,0.4-7,0.4-10.6
			c0-67-48.8-122.1-111.6-129.5c4.1-3.8,6.6-9.2,6.6-15.2c0-11.5-9.3-20.8-20.8-20.8c-11.5,0-20.8,9.3-20.8,20.8
			c0,6,2.6,11.4,6.6,15.2c-62.8,7.3-111.6,62.5-111.6,129.5c0,3.5,0.1,7,0.4,10.5C120.4,195.2,127.9,195.2,135.2,195.2z"/>
		<rect x="89.3" y="203" width="297.4" height="26.2"/>
		<path d="M264.6,247.9c-15.1,7.3-67.8,26.4-67.8,26.4l-62.3-3.9c0,0,35.6-9.9,49.4-13c13.8-3.1,7.8-18.7,0.2-18.7
			c-7.6,0-74.3,2.8-74.3,2.8l-44.3,15.9l11.7,74.2c0,0,9.1-15.6,18.2-15.6c9.1,0,88.2,2.1,98.9,0c10.7-2.1,76.1-46.9,84-52.1
			C286.1,258.6,279.8,240.5,264.6,247.9z"/>
		<polygon points="6,265.3 6,361.4 73.8,348.7 56.9,256.3 		"/>
	</g>
</g>
</svg>
