<?xml version="1.0" encoding="UTF-8"?>
<svg width="24px" height="24px" viewBox="0 0 24 24" version="1.1" xmlns="http://www.w3.org/2000/svg" xmlns:xlink="http://www.w3.org/1999/xlink">
    <!-- Generator: Sketch 51.3 (57544) - http://www.bohemiancoding.com/sketch -->
    <title>twin-bed</title>
    <desc>Created with Sketch.</desc>
    <defs></defs>
    <g id="twin-bed" stroke="none" stroke-width="1" fill="none" fill-rule="evenodd">
        <path d="M4,13 L11,13 L11,19 L4,19 L4,21 C4,21.5 3.5,22 3,22 C2.5,22 2,21.5 2,21 L2,15 C2,13.9 2.8,13 4,13 Z M22,15 L22,21 C22,21.5 21.5,22 21,22 C20.5,22 20,21.5 20,21 L20,19 L13,19 L13,13 L20,13 C21.1,13 22,13.9 22,15 Z M3,2 L11,2 L11,6 L5,6 L5,11 L3,11 L3,2 Z M21,2 L21,11 L19,11 L19,6 L13,6 L13,2 L21,2 Z M6.9,8 L10.9,8 L10.9,11 L6.9,11 L6.9,8 Z M12.9,8 L16.9,8 L16.9,11 L12.9,11 L12.9,8 Z" id="Combined-Shape" fill="#4A4A4A" fill-rule="nonzero"></path>
    </g>
</svg>