<?xml version="1.0" encoding="iso-8859-1"?>
<!-- Generator: Adobe Illustrator 16.0.0, SVG Export Plug-In . SVG Version: 6.00 Build 0)  -->
<!DOCTYPE svg PUBLIC "-//W3C//DTD SVG 1.1//EN" "http://www.w3.org/Graphics/SVG/1.1/DTD/svg11.dtd">
<svg version="1.1" id="Capa_1" xmlns="http://www.w3.org/2000/svg" xmlns:xlink="http://www.w3.org/1999/xlink" x="0px" y="0px"
	 width="604.072px" height="604.072px" viewBox="0 0 604.072 604.072" style="enable-background:new 0 0 604.072 604.072;"
	 xml:space="preserve">
<g>
	<g>
		<path d="M459.159,98.194c-50.035-20.29-102.899-30.578-157.124-30.578S194.946,77.904,144.911,98.194
			c-51.813,21.011-98.293,51.874-138.148,91.728c-8.364,8.365-8.364,21.927,0,30.293c8.365,8.364,21.928,8.365,30.293,0
			c35.779-35.779,77.483-63.476,123.955-82.321c44.897-18.207,92.345-27.438,141.025-27.438c48.68,0,96.128,9.231,141.024,27.438
			c46.472,18.845,88.176,46.542,123.955,82.321c4.183,4.182,9.665,6.273,15.146,6.273c5.482,0,10.964-2.091,15.146-6.273
			c8.365-8.366,8.365-21.928,0-30.293C557.453,150.067,510.973,119.205,459.159,98.194z"/>
		<path d="M582.162,226.988c-5.854,0-11.359-2.28-15.5-6.42c-35.732-35.731-77.381-63.391-123.789-82.211
			c-44.837-18.182-92.221-27.401-140.837-27.401c-48.615,0-96,9.219-140.837,27.401c-46.409,18.819-88.057,46.479-123.79,82.211
			c-4.14,4.14-9.645,6.42-15.5,6.42s-11.36-2.28-15.5-6.42c-8.545-8.547-8.545-22.454,0-31
			c39.904-39.903,86.439-70.802,138.314-91.838c50.096-20.314,103.023-30.614,157.312-30.614c54.29,0,107.217,10.3,157.312,30.614
			c51.877,21.037,98.412,51.936,138.315,91.838c8.547,8.546,8.547,22.453,0,31C593.521,224.708,588.017,226.988,582.162,226.988z
			 M302.036,109.956c48.745,0,96.256,9.244,141.212,27.475c46.534,18.87,88.294,46.604,124.121,82.431
			c3.951,3.951,9.205,6.127,14.793,6.127s10.842-2.176,14.793-6.127c8.156-8.157,8.156-21.429,0-29.586
			c-39.808-39.807-86.232-70.632-137.983-91.618c-49.975-20.266-102.776-30.541-156.937-30.541
			c-54.159,0-106.96,10.275-156.936,30.541c-51.75,20.985-98.174,51.81-137.983,91.618c-8.156,8.157-8.156,21.429,0,29.586
			c3.952,3.951,9.206,6.127,14.793,6.127s10.841-2.176,14.792-6.127c35.827-35.827,77.587-63.561,124.121-82.431
			C205.78,119.2,253.292,109.956,302.036,109.956z"/>
	</g>
	<g>
		<path d="M509.752,298.897c5.482,0,10.964-2.091,15.146-6.273c8.365-8.365,8.365-21.928,0-30.293
			c-30.08-30.079-65.162-53.373-104.273-69.233c-37.766-15.314-77.665-23.08-118.59-23.08s-80.824,7.765-118.59,23.08
			c-39.11,15.86-74.193,39.154-104.272,69.233c-8.365,8.365-8.365,21.928,0,30.293c8.364,8.364,21.927,8.364,30.292,0
			c26.004-26.004,56.311-46.132,90.079-59.826c32.628-13.231,67.111-19.939,102.492-19.939c35.38,0,69.863,6.708,102.49,19.939
			c33.77,13.694,64.077,33.822,90.08,59.826C498.789,296.806,504.271,298.897,509.752,298.897z"/>
		<path d="M509.752,299.397c-5.854,0-11.359-2.28-15.499-6.42c-25.954-25.955-56.206-46.047-89.914-59.716
			c-32.567-13.207-66.986-19.903-102.303-19.903s-69.737,6.696-102.304,19.903c-33.707,13.669-63.958,33.761-89.914,59.716
			c-4.14,4.14-9.645,6.42-15.5,6.42s-11.359-2.28-15.499-6.42c-8.547-8.547-8.547-22.453,0-31
			c30.127-30.127,65.265-53.458,104.438-69.343c37.825-15.339,77.787-23.116,118.778-23.116c40.988,0,80.951,7.777,118.777,23.116
			c39.172,15.884,74.311,39.214,104.439,69.343c8.547,8.547,8.547,22.453,0,31C521.112,297.117,515.607,299.397,509.752,299.397z
			 M302.036,212.358c35.445,0,69.991,6.721,102.678,19.976c33.834,13.72,64.196,33.886,90.246,59.936
			c3.951,3.951,9.204,6.127,14.792,6.127s10.842-2.176,14.793-6.127c3.951-3.952,6.127-9.205,6.127-14.793
			s-2.176-10.841-6.127-14.793c-30.034-30.033-65.061-53.29-104.107-69.123c-37.707-15.29-77.544-23.043-118.402-23.043
			c-40.861,0-80.697,7.753-118.402,23.043c-39.048,15.834-74.075,39.091-104.107,69.123c-3.951,3.952-6.127,9.205-6.127,14.793
			s2.176,10.841,6.127,14.793c3.951,3.951,9.204,6.127,14.792,6.127s10.842-2.176,14.793-6.127
			c26.051-26.051,56.414-46.216,90.245-59.936C232.043,219.079,266.59,212.358,302.036,212.358z"/>
	</g>
	<g>
		<path d="M443.095,375.858c5.482,0,10.964-2.092,15.146-6.273c8.365-8.365,8.365-21.928,0-30.293
			c-21.081-21.08-45.671-37.407-73.089-48.525c-26.471-10.734-54.436-16.178-83.116-16.178c-28.682,0-56.646,5.443-83.117,16.178
			c-27.417,11.118-52.008,27.445-73.089,48.525c-8.364,8.365-8.364,21.928,0,30.293c8.364,8.363,21.927,8.365,30.292,0
			c33.634-33.633,78.35-52.156,125.914-52.156c47.563,0,92.28,18.523,125.913,52.156
			C432.131,373.767,437.613,375.858,443.095,375.858z"/>
		<path d="M443.095,376.358c-5.854,0-11.359-2.28-15.499-6.42c-33.539-33.539-78.13-52.01-125.56-52.01
			c-47.429,0-92.021,18.471-125.561,52.01c-4.14,4.14-9.644,6.42-15.499,6.42s-11.36-2.28-15.5-6.42c-8.546-8.547-8.546-22.453,0-31
			c21.129-21.129,45.776-37.492,73.254-48.635c26.532-10.759,54.56-16.214,83.305-16.214c28.745,0,56.772,5.455,83.304,16.214
			c27.479,11.143,52.125,27.506,73.255,48.635c4.141,4.141,6.421,9.645,6.421,15.5s-2.28,11.359-6.421,15.5
			C454.454,374.078,448.949,376.358,443.095,376.358z M302.036,316.929c47.696,0,92.539,18.575,126.267,52.303
			c3.951,3.951,9.204,6.127,14.792,6.127s10.841-2.176,14.793-6.127c3.951-3.951,6.128-9.205,6.128-14.793
			s-2.177-10.842-6.128-14.793c-21.035-21.034-45.569-37.323-72.923-48.415c-26.412-10.71-54.313-16.141-82.929-16.141
			c-28.616,0-56.518,5.431-82.929,16.141c-27.354,11.093-51.889,27.382-72.923,48.415c-8.156,8.157-8.156,21.429,0,29.586
			c3.951,3.951,9.205,6.127,14.793,6.127s10.841-2.176,14.792-6.127C209.498,335.504,254.34,316.929,302.036,316.929z"/>
	</g>
	<g>
		<path d="M331.743,384.233c-9.472-3.842-19.467-5.789-29.708-5.789s-20.236,1.947-29.707,5.789
			c-9.828,3.984-18.629,9.822-26.157,17.352s-13.366,16.328-17.353,26.158c-3.841,9.471-5.788,19.467-5.788,29.707
			c0,10.242,1.947,20.236,5.788,29.707c3.985,9.83,9.823,18.629,17.353,26.158c7.528,7.529,16.329,13.367,26.157,17.352
			c9.472,3.842,19.467,5.789,29.708,5.789s20.236-1.947,29.707-5.789c9.829-3.984,18.629-9.822,26.158-17.352
			c7.528-7.529,13.366-16.328,17.352-26.158c3.841-9.471,5.788-19.465,5.788-29.707c0-10.24-1.947-20.236-5.788-29.707
			c-3.985-9.83-9.823-18.629-17.352-26.158C350.372,394.056,341.571,388.218,331.743,384.233z M327.607,483.022
			c-7.062,7.061-16.317,10.592-25.572,10.592s-18.511-3.531-25.572-10.592c-14.123-14.123-14.123-37.021,0-51.145
			c7.062-7.062,16.317-10.594,25.572-10.594s18.511,3.531,25.572,10.594C341.73,446.001,341.73,468.899,327.607,483.022z"/>
		<path d="M302.036,536.956c-10.307,0-20.365-1.96-29.896-5.826c-9.891-4.01-18.747-9.884-26.323-17.461
			c-7.578-7.578-13.453-16.435-17.462-26.324c-3.865-9.53-5.825-19.588-5.825-29.895s1.96-20.364,5.825-29.895
			c4.01-9.89,9.886-18.746,17.462-26.324c7.576-7.577,16.432-13.451,26.323-17.461c9.53-3.866,19.588-5.826,29.895-5.826
			c10.307,0,20.365,1.96,29.896,5.826c9.891,4.009,18.747,9.884,26.324,17.461c7.577,7.578,13.452,16.435,17.462,26.324
			c3.864,9.53,5.824,19.588,5.824,29.895s-1.96,20.364-5.825,29.895c-4.009,9.89-9.884,18.746-17.461,26.324
			c-7.577,7.577-16.435,13.452-26.324,17.461C322.401,534.996,312.344,536.956,302.036,536.956z M302.035,378.944
			c-10.178,0-20.109,1.936-29.519,5.752c-9.766,3.96-18.511,9.761-25.992,17.242c-7.481,7.482-13.283,16.228-17.243,25.992
			c-3.816,9.411-5.751,19.343-5.751,29.52s1.935,20.108,5.751,29.52c3.959,9.765,9.76,18.51,17.243,25.992
			c7.48,7.481,16.226,13.282,25.992,17.241c9.411,3.817,19.342,5.753,29.52,5.753s20.109-1.936,29.52-5.752
			c9.765-3.959,18.51-9.76,25.992-17.242c7.482-7.483,13.283-16.229,17.242-25.992c3.816-9.411,5.751-19.343,5.751-29.52
			s-1.935-20.108-5.751-29.52c-3.959-9.764-9.76-18.509-17.242-25.992c-7.481-7.481-16.227-13.282-25.992-17.241
			C322.145,380.88,312.213,378.944,302.035,378.944z M302.035,494.114c-9.793,0-19-3.813-25.926-10.738
			c-14.295-14.296-14.295-37.556,0-51.852c6.925-6.926,16.132-10.74,25.926-10.74c9.794,0,19.001,3.814,25.926,10.74
			c6.925,6.925,10.739,16.132,10.739,25.926s-3.814,19.001-10.739,25.926C321.035,490.301,311.828,494.114,302.035,494.114z
			 M302.035,421.784c-9.526,0-18.482,3.71-25.219,10.447c-13.906,13.905-13.906,36.532,0,50.438
			c6.737,6.735,15.693,10.445,25.219,10.445c9.525,0,18.482-3.71,25.219-10.445c6.736-6.736,10.446-15.692,10.446-25.219
			s-3.71-18.482-10.446-25.219C320.518,425.494,311.562,421.784,302.035,421.784z"/>
	</g>
</g>
<g>
</g>
<g>
</g>
<g>
</g>
<g>
</g>
<g>
</g>
<g>
</g>
<g>
</g>
<g>
</g>
<g>
</g>
<g>
</g>
<g>
</g>
<g>
</g>
<g>
</g>
<g>
</g>
<g>
</g>
</svg>
